# xmcd
#
# Track frame offsets:
#	150
#	12142
#	24775
#	38820
#	56300
#	70147
#	82525
#	94200
#	105037
#	116900
#	129947
#	143135
#	159162
#	173000
#	188102
#	199900
#	211677
#	223897
#	236990
#	248267
#
# Disc length: 3489 seconds
# Revision: 0
# Processed by: cddbd v1.5.2PL0 Copyright (c) Steve Scherf et al.
# Submitted via: dBpowerAMP V12.0
#
DISCID=f40d9f14
DTITLE=Various Artist - Simply The Best Classic Soul (2 of 2)
DYEAR=1997
DGENRE=Pop/Rock
TTITLE0=Martha Reeves and The Vandellas - Dancing In The Street
TTITLE1=Gladys Knight - I Heard It Through The Grapevine
TTITLE2=Wilson Pickett - Mustang Sally
TTITLE3=Charles Wright and The Watts 103rd Street Rhythm Band - Express Yourself
TTITLE4=Eddie Floyd - Knock On Wood
TTITLE5=Solomon Burke - Everybody Needs Somebody To Love
TTITLE6=Erma Franklin - (Take a Little) Piece Of My Heart
TTITLE7=Aretha Franklin - Respect
TTITLE8=Wilson Pickett - In The Midnight Hour
TTITLE9=Booker T. and The MG's - Green Onions
TTITLE10=Jackie Wilson - (Your Love Keeps Lifting Me) Higher And Higher
TTITLE11=Aretha Franklin - I Say A Little Prayer
TTITLE12=Dionne Warwick - You'll Never Get To Heaven
TTITLE13=Michael Jackson - Got To Be There
TTITLE14=Diana Ross and The Supremes - Baby Love
TTITLE15=Drifters, The - Up On The Roof
TTITLE16=Miracles, The - I Second That Emotion
TTITLE17=Jackie Wilson - I Get The Sweetest Feeling
TTITLE18=Young Rascals, The - Groovin'
TTITLE19=Ben E. King - Stand By Me
EXTD=
EXTT0=
EXTT1=
EXTT2=
EXTT3=
EXTT4=
EXTT5=
EXTT6=
EXTT7=
EXTT8=
EXTT9=
EXTT10=
EXTT11=
EXTT12=
EXTT13=
EXTT14=
EXTT15=
EXTT16=
EXTT17=
EXTT18=
EXTT19=
PLAYORDER=
